Coordinates
version=1
nRows=7
nColumns=33
inDegrees=yes

Units are S.I. units (second, meters, Newtons, ...)
Angles are in degrees.

endheader
time	ground_thorax_rot_x	ground_thorax_rot_y	ground_thorax_rot_z	ground_thorax_tx	ground_thorax_ty	ground_thorax_tz	clav_prot_r	clav_elev_r	scapula_abduction_r	scapula_elevation_r	scapula_upward_rot_r	scapula_winging_r	shoulder_elv_r	plane_of_elev_r	axial_rot_r	elbow_flexion_r	pro_sup_r	wrist_flex_r	wrist_dev_r	clav_prot_l	clav_elev_l	scapula_abduction_l	scapula_elevation_l	scapula_upward_rot_l	scapula_winging_l	shoulder_elv_l	plane_of_elev_l	axial_rot_l	elbow_flexion_l	pro_sup_l	wrist_flex_l	wrist_dev_l
      4.79000000	    -22.03096407	    -37.07987330	     52.22592341	    -22.14808210	    827.64147455	    -41.48053556	     27.97270678	    -45.00000000	     41.97609591	    -45.00000000	    -45.00000000	   2055.48976707	    254.83429196	    159.59447471	     34.93482507	   2158.94602287	    164.12452962	     13.68526235	     15.43676165	     -3.39327845	     37.93584888	    -34.23905007	    -45.00000000	    -25.00607673	   3698.64314360	  -2984.74443648	    142.68772003	    179.99999979	    360.69231661	    405.22214029	     14.68835598	    -23.40161706
      4.80000000	    -21.50634259	    -37.40025982	     53.04266869	    -19.14760689	    825.86865719	    -41.30643602	     28.04228686	    -45.00000000	     41.99965769	    -45.00000000	    -45.00000000	   2055.50180511	    254.72713893	    159.66848749	     35.19872367	   2158.95419285	    164.71939154	     13.62167624	     15.40304699	     -3.43118137	     37.85108351	    -33.99598956	    -45.00000000	    -25.23781216	   3698.52335683	  -2984.81164624	    142.63322388	    179.99999979	    360.57099950	    405.26941398	     14.71746525	    -23.21786634
      4.81000000	    -21.00864079	    -37.71145682	     53.79771421	    -16.19444987	    824.09104472	    -41.12273927	     28.06186680	    -45.00000000	     41.99149619	    -45.00000000	    -45.00000000	   2055.58637883	    254.67118217	    159.77163017	     35.52000533	   2158.99510472	    165.32966336	     13.54946087	     15.33471329	     -3.36404652	     37.81336545	    -33.82259393	    -45.00000000	    -25.50110034	   3698.52904980	  -2985.05290102	    142.54223101	    179.99999979	    360.41797629	    405.31538186	     14.72672982	    -22.94119263
      4.82000000	    -20.44847403	    -37.97387533	     54.65491889	    -13.28370755	    822.30405705	    -40.92860140	     28.12177703	    -45.00000000	     41.99379119	    -45.00000000	    -45.00000000	   2055.56104229	    254.60084120	    159.85176440	     35.82606443	   2159.07303100	    165.93758224	     13.48792569	     15.26335033	     -3.39241251	     37.72059250	    -33.54077912	    -45.00000000	    -25.76373806	   3698.37550401	  -2985.18327352	    142.49430918	    179.99999979	    360.32871812	    405.33811393	     14.73778448	    -22.75817101
      4.83000000	    -19.94186414	    -38.23337807	     55.43488912	    -10.41634879	    820.50771426	    -40.72333604	     28.21888489	    -45.00000000	     41.96677812	    -45.00000000	    -45.00000000	   2055.53585752	    254.50969695	    159.88790243	     36.21946259	   2159.13197537	    166.57229634	     13.45459174	     15.19555776	     -3.42035752	     37.65710586	    -33.35325665	    -45.00000000	    -26.02312107	   3698.33673798	  -2985.33384152	    142.41913246	    179.99999979	    360.14911117	    405.40480953	     14.76954168	    -22.64732591
      4.84000000	    -19.45992529	    -38.47443503	     56.16356369	     -7.59119609	    818.70170190	    -40.50655573	     28.29353958	    -45.00000000	     41.97652439	    -45.00000000	    -45.00000000	   2055.51895051	    254.41342679	    159.94907153	     36.60667361	   2159.18069412	    167.21175858	     13.42558742	     15.13298503	     -3.46266271	     37.59858375	    -33.14687760	    -45.00000000	    -26.17128628	   3698.26622137	  -2985.47608975	    142.39264598	    179.99999979	    359.97823631	    405.49403116	     14.79919658	    -22.48192282
      4.85000000	    -18.94942542	    -38.66291160	     56.95075836	     -4.81045541	    816.88769134	    -40.27777551	     28.36460015	    -45.00000000	     41.93350751	    -45.00000000	    -45.00000000	   2055.49112640	    254.34792711	    160.04978882	     36.98711226	   2159.26049846	    167.82670940	     13.37736387	     15.03357801	     -3.49403393	     37.53022100	    -32.90882430	    -45.00000000	    -26.39284765	   3698.19492136	  -2985.64375532	    142.31129184	    179.99999979	    359.86316240	    405.54956305	     14.79210790	    -22.26205665
